<?xml version="1.0" encoding="utf-8"?>
<!DOCTYPE svg PUBLIC "-//W3C//DTD SVG 1.0//EN" "http://www.w3.org/TR/2001/REC-SVG-20010904/DTD/svg10.dtd">
<svg version="1.0" xmlns="http://www.w3.org/2000/svg" width="646px" height="607px" viewBox="0 0 646 607" preserveAspectRatio="xMidYMid meet">
 <g fill="#0aacd8">
  <path d="M104.42 555.10 c-18.60 -2.88 -34.99 -11.56 -47.72 -25.33 -10.22 -11.07 -16.58 -23.31 -20.19 -39.15 l-1.35 -5.81 -0.18 -189.64 c-0.18 -205.55 -0.31 -194.60 3 -207.01 6.18 -23 22.15 -43.01 42.27 -52.85 12.85 -6.30 19.09 -8.14 31.69 -9.05 5.26 -0.37 73.53 -0.55 188.11 -0.43 l179.85 0.18 4.83 1.41 c22.70 6.42 39.15 24.35 43.13 46.86 0.43 2.39 0.67 22.57 0.67 57.44 0 59.46 0.18 56.40 -3.92 59.34 -1.65 1.16 -2.81 1.35 -9.60 1.53 -8.56 0.24 -10.64 -0.31 -12.60 -3.36 -1.04 -1.53 -1.10 -5.44 -1.41 -55.85 l-0.31 -54.14 -1.59 -4.34 c-3.18 -8.75 -8.50 -14.74 -16.33 -18.47 l-4.71 -2.26 -182.12 -0.18 c-165.60 -0.12 -182.42 -0.06 -185.66 0.86 -1.96 0.55 -4.96 1.35 -6.73 1.77 -1.77 0.43 -4.16 1.28 -5.32 1.96 -1.22 0.61 -4.34 2.14 -6.91 3.49 -8.32 4.16 -16.76 13.15 -21.66 23.19 -5.69 11.62 -5.14 -10.03 -5.14 207.50 0 184.87 0.06 192.27 1.10 196.37 1.65 6.12 6 14.68 9.85 19.39 6.67 8.07 15.66 13.76 26.06 16.52 l5.20 1.41 183.22 0.18 c137.52 0.12 184.07 0 186.58 -0.49 10.28 -2.20 20.43 -12.11 22.39 -21.78 l0.37 -1.90 -12.85 0.31 c-21.23 0.49 -35.48 -1.47 -53.28 -7.34 -26.92 -8.93 -51.63 -26.18 -69.74 -48.69 l-4.59 -5.63 -116.66 0 c-75.79 0 -117.76 -0.24 -119.84 -0.61 -10.22 -1.96 -17.99 -9.48 -20.13 -19.45 -0.98 -4.59 -0.98 -305.14 0 -309.79 2.14 -10.09 8.93 -17.01 19.39 -19.70 3.30 -0.92 15.42 -0.98 118.62 -0.86 l114.89 0.18 3.36 1.59 c1.84 0.86 4.47 2.57 5.81 3.73 1.35 1.16 16.39 16.09 33.40 33.28 33.03 33.22 33.40 33.65 34.75 40.93 0.43 2.14 0.67 12.23 0.67 25.20 0 11.87 0.24 21.59 0.49 21.59 0.31 0 1.90 -0.43 3.55 -0.92 4.04 -1.22 17.43 -3.73 25.02 -4.65 8.01 -1.04 30.40 -1.04 36.70 -0.06 19.88 3.18 32.79 7.10 48.33 14.93 14.38 7.22 25.88 15.60 37.68 27.47 18.60 18.72 31.57 41.17 37.81 65.58 7.52 29.24 6.18 57.87 -3.98 86.38 -5.14 14.38 -15.54 32.24 -25.63 44.29 -5.02 5.87 -18.41 19.33 -20.37 20.43 -0.67 0.43 -3.30 2.32 -5.81 4.22 -2.45 1.90 -6.42 4.65 -8.75 6.06 -2.32 1.41 -4.89 3.24 -5.81 4.04 -0.86 0.80 -1.84 1.41 -2.20 1.41 -0.31 0 -1.84 0.80 -3.30 1.84 -1.47 0.98 -3.12 1.84 -3.67 1.84 -0.55 0 -1.35 0.37 -1.71 0.86 -0.37 0.49 -1.90 1.04 -3.30 1.22 -1.41 0.24 -4.10 1.35 -5.93 2.45 l-3.36 1.96 -0.67 4.89 c-1.90 13.15 -7.04 24.65 -15.23 33.89 -3.67 4.16 -15.48 14.07 -16.82 14.07 -1.10 0 -9.85 3.55 -12.85 5.26 -2.08 1.16 -5.02 1.16 -187.80 1.28 -155.08 0.06 -186.58 -0.06 -191.05 -0.80z m394.15 -80.32 c34.56 -5.63 63.38 -24.65 82.65 -54.51 5.57 -8.56 10.71 -19.94 13.70 -30.28 8.44 -29.12 5.87 -59.09 -7.28 -85.64 -16.33 -32.91 -45.21 -55.55 -82.10 -64.36 -7.16 -1.65 -7.59 -1.71 -24.71 -1.65 -15.23 0.06 -18.23 0.18 -23.55 1.35 -12.60 2.63 -20.98 5.57 -32.42 11.38 -13.21 6.73 -20.86 12.42 -31.87 23.80 -17.68 18.23 -28.26 39.95 -32.12 65.88 -1.10 7.40 -0.92 25.20 0.31 33.03 8.26 52.98 49.12 93.47 102.04 101.18 8.87 1.28 26.92 1.22 35.36 -0.18z m-314.44 -84.79 l0 -30.89 -31.02 0.12 -31.08 0.18 0 27.53 c0 27.53 0 27.53 1.41 29.73 2.63 4.22 2.14 4.22 33.03 4.22 l27.65 0 0 -30.89z m88.09 0.31 l0 -30.59 -33.65 0 -33.65 0 0 30.59 0 30.59 33.65 0 33.65 0 0 -30.59z m74.63 30.34 c0 -0.12 -1.10 -2.57 -2.51 -5.51 -6.67 -14.25 -12.17 -37.74 -12.17 -52.06 l0 -3.36 -19.58 0 -19.58 0 0 30.59 0 30.59 26.92 0 c14.80 0 26.92 -0.12 26.92 -0.24z m-162.72 -112.62 l0 -31.50 -31.20 0 -31.20 0 0 31.50 0 31.50 31.20 0 31.20 0 0 -31.50z m88.09 0 l0 -31.50 -33.65 0 -33.65 0 0 31.50 0 31.50 33.65 0 33.65 0 0 -31.50z m61.11 26.18 c2.45 -17.62 10.03 -38.17 19.70 -53.71 0.86 -1.35 1.77 -2.81 2.02 -3.18 0.37 -0.61 -6 -0.80 -30.77 -0.80 l-31.26 0 0 31.50 0 31.50 19.76 0 19.82 0 0.73 -5.32z m-149.20 -109.69 l0 -31.20 -31.20 0 -31.20 0 0 31.20 0 31.20 31.20 0 31.20 0 0 -31.20z m88.09 0.18 l0 -31.08 -32.85 0.18 c-18.11 0.06 -33.28 0.31 -33.65 0.43 -0.61 0.18 -0.80 6.91 -0.80 30.89 l0 30.59 33.65 0 33.65 0 0 -31.02z m104.97 26.37 c9.30 -8.93 19.39 -16.46 30.40 -22.51 l4.10 -2.32 0 -16.46 0 -16.46 -28.63 0 c-31.87 0 -32.73 -0.06 -37.26 -3.92 -1.35 -1.22 -3.12 -3.55 -3.92 -5.38 l-1.47 -3.24 -0.18 -35.05 -0.18 -34.99 -22.76 0 c-16.95 0 -23 0.18 -23.55 0.73 -0.55 0.55 -0.73 17.50 -0.73 72.49 l0 71.76 39.70 0 39.70 0 4.77 -4.65z m-193.19 -109.26 l0.12 -31.08 -26.86 0 c-25.08 0 -27.04 0.06 -29.61 1.16 -1.47 0.67 -3.36 2.08 -4.16 3.24 l-1.47 2.02 -0.18 27.65 -0.18 27.65 8.44 0.24 c4.65 0.06 18.66 0.18 31.08 0.12 l22.63 0 0.18 -31.02z m88.09 0 l0.12 -31.08 -33.65 0 -33.65 0 0 30.89 0 30.83 7.22 0.24 c3.92 0.06 19.03 0.18 33.46 0.12 l26.30 0 0.18 -31.02z m137.15 30.83 c0 -0.80 -46.86 -47.23 -47.65 -47.23 -0.49 0 -0.67 6.30 -0.67 23.86 l0 23.86 24.16 0 c13.27 0 24.16 -0.24 24.16 -0.49z"/>
  <path d="M438.37 423.26 c-3.30 -0.80 -5.57 -2.57 -7.04 -5.69 -1.28 -2.63 -1.28 -2.75 -1.16 -61.60 l0.18 -58.97 1.47 -2.39 c2.14 -3.43 4.53 -4.65 9.11 -4.65 2.39 0 4.59 0.37 5.81 0.98 1.59 0.86 34.07 19.88 56.10 32.85 2.88 1.71 13.46 7.83 23.55 13.70 20.07 11.62 22.57 13.52 23.25 18.05 0.43 2.88 -0.61 6.42 -2.63 8.63 -0.98 1.10 -6 4.71 -6.55 4.71 -0.43 0 -28.81 16.33 -32.61 18.72 -1.77 1.16 -3.36 2.08 -3.49 2.08 -0.18 0 -4.96 2.69 -10.58 5.93 -16.15 9.36 -37.56 21.59 -37.74 21.59 -0.12 0 -2.02 1.10 -4.28 2.51 -4.28 2.57 -8.32 4.28 -10.03 4.16 -0.55 -0.06 -2.02 -0.31 -3.36 -0.61z"/>
 </g>
</svg>